{
    "asset" : {
        "generator" : "Khronos glTF Blender I/O v3.4.50",
        "version" : "2.0"
    },
    "scene" : 0,
    "scenes" : [
        {
            "name" : "Scene",
            "nodes" : [
                0,
                1,
                2,
                3,
                4,
                5,
                6
            ]
        }
    ],
    "nodes" : [
        {
            "mesh" : 0,
            "name" : "AD.01",
            "rotation" : [
                -0.020511232316493988,
                0.624179482460022,
                -0.5159990191459656,
                0.5862799882888794
            ],
            "scale" : [
                0.28635796904563904,
                0.5,
                0.6150187253952026
            ],
            "translation" : [
                3.438009738922119,
                9.33073902130127,
                -9.7617826461792
            ]
        },
        {
            "mesh" : 1,
            "name" : "AD.02",
            "rotation" : [
                -0.6107304692268372,
                -0.5008827447891235,
                0.04349891468882561,
                0.6117455959320068
            ],
            "scale" : [
                0.4999999701976776,
                0.5,
                0.6150187253952026
            ],
            "translation" : [
                -3.905372142791748,
                4.785865306854248,
                -3.6692795753479004
            ]
        },
        {
            "mesh" : 2,
            "name" : "AD.03",
            "rotation" : [
                -0.14404132962226868,
                0.5164045095443726,
                -0.5568113327026367,
                0.6344601511955261
            ],
            "scale" : [
                0.4999999701976776,
                0.5,
                0.6150187253952026
            ],
            "translation" : [
                -1.6631526947021484,
                3.960509777069092,
                11.622841835021973
            ]
        },
        {
            "mesh" : 3,
            "name" : "AD.05",
            "rotation" : [
                -0.5798954963684082,
                0.26419392228126526,
                -0.5474011301994324,
                0.542471170425415
            ],
            "scale" : [
                0.5964142084121704,
                0.4999999403953552,
                0.6150187849998474
            ],
            "translation" : [
                -1.0806114673614502,
                4.074051856994629,
                -3.6652207374572754
            ]
        },
        {
            "mesh" : 4,
            "name" : "AD.11",
            "rotation" : [
                -0.7002688646316528,
                0.4914114773273468,
                -0.38715556263923645,
                0.34387338161468506
            ],
            "scale" : [
                0.315310537815094,
                0.5,
                0.6150187253952026
            ],
            "translation" : [
                3.6962244510650635,
                4.4121503829956055,
                -8.191291809082031
            ]
        },
        {
            "mesh" : 5,
            "name" : "AD.13",
            "rotation" : [
                -0.41323739290237427,
                0.35950902104377747,
                -0.5651055574417114,
                0.6169633865356445
            ],
            "scale" : [
                0.8175083994865417,
                0.5000000596046448,
                0.6150186657905579
            ],
            "translation" : [
                7.074963092803955,
                4.524010181427002,
                7.499088764190674
            ]
        },
        {
            "mesh" : 6,
            "name" : "AD.15",
            "rotation" : [
                -0.5186190605163574,
                0.5750271081924438,
                -0.33628973364830017,
                0.535991907119751
            ],
            "scale" : [
                0.7183625102043152,
                0.35574984550476074,
                0.43758583068847656
            ],
            "translation" : [
                -3.9933156967163086,
                4.635448932647705,
                -11.912726402282715
            ]
        }
    ],
    "materials" : [
        {
            "doubleSided" : true,
            "name" : "001.051",
            "pbrMetallicRoughness" : {
                "baseColorTexture" : {
                    "index" : 0
                },
                "metallicFactor" : 0,
                "roughnessFactor" : 0.5
            }
        },
        {
            "doubleSided" : true,
            "name" : "001.052",
            "pbrMetallicRoughness" : {
                "baseColorTexture" : {
                    "index" : 1
                },
                "metallicFactor" : 0,
                "roughnessFactor" : 0.5
            }
        },
        {
            "doubleSided" : true,
            "name" : "001.053",
            "pbrMetallicRoughness" : {
                "baseColorTexture" : {
                    "index" : 2
                },
                "metallicFactor" : 0,
                "roughnessFactor" : 0.5
            }
        },
        {
            "doubleSided" : true,
            "name" : "001.055",
            "pbrMetallicRoughness" : {
                "baseColorTexture" : {
                    "index" : 3
                },
                "metallicFactor" : 0,
                "roughnessFactor" : 0.5
            }
        },
        {
            "doubleSided" : true,
            "name" : "001.061",
            "pbrMetallicRoughness" : {
                "baseColorTexture" : {
                    "index" : 4
                },
                "metallicFactor" : 0,
                "roughnessFactor" : 0.5
            }
        },
        {
            "doubleSided" : true,
            "name" : "001.063",
            "pbrMetallicRoughness" : {
                "baseColorTexture" : {
                    "index" : 5
                },
                "metallicFactor" : 0,
                "roughnessFactor" : 0.5
            }
        },
        {
            "doubleSided" : true,
            "name" : "001.065",
            "pbrMetallicRoughness" : {
                "baseColorTexture" : {
                    "index" : 6
                },
                "metallicFactor" : 0,
                "roughnessFactor" : 0.5
            }
        }
    ],
    "meshes" : [
        {
            "name" : "Plane.054",
            "primitives" : [
                {
                    "attributes" : {
                        "POSITION" : 0,
                        "TEXCOORD_0" : 1,
                        "NORMAL" : 2
                    },
                    "indices" : 3,
                    "material" : 0
                }
            ]
        },
        {
            "name" : "Plane.055",
            "primitives" : [
                {
                    "attributes" : {
                        "POSITION" : 4,
                        "TEXCOORD_0" : 5,
                        "NORMAL" : 6
                    },
                    "indices" : 3,
                    "material" : 1
                }
            ]
        },
        {
            "name" : "Plane.056",
            "primitives" : [
                {
                    "attributes" : {
                        "POSITION" : 7,
                        "TEXCOORD_0" : 8,
                        "NORMAL" : 9
                    },
                    "indices" : 3,
                    "material" : 2
                }
            ]
        },
        {
            "name" : "Plane.058",
            "primitives" : [
                {
                    "attributes" : {
                        "POSITION" : 10,
                        "TEXCOORD_0" : 11,
                        "NORMAL" : 12
                    },
                    "indices" : 3,
                    "material" : 3
                }
            ]
        },
        {
            "name" : "Plane.064",
            "primitives" : [
                {
                    "attributes" : {
                        "POSITION" : 13,
                        "TEXCOORD_0" : 14,
                        "NORMAL" : 15
                    },
                    "indices" : 3,
                    "material" : 4
                }
            ]
        },
        {
            "name" : "Plane.066",
            "primitives" : [
                {
                    "attributes" : {
                        "POSITION" : 16,
                        "TEXCOORD_0" : 17,
                        "NORMAL" : 18
                    },
                    "indices" : 3,
                    "material" : 5
                }
            ]
        },
        {
            "name" : "Plane.068",
            "primitives" : [
                {
                    "attributes" : {
                        "POSITION" : 19,
                        "TEXCOORD_0" : 20,
                        "NORMAL" : 21
                    },
                    "indices" : 3,
                    "material" : 6
                }
            ]
        }
    ],
    "textures" : [
        {
            "sampler" : 0,
            "source" : 0
        },
        {
            "sampler" : 0,
            "source" : 1
        },
        {
            "sampler" : 0,
            "source" : 2
        },
        {
            "sampler" : 0,
            "source" : 3
        },
        {
            "sampler" : 0,
            "source" : 4
        },
        {
            "sampler" : 0,
            "source" : 5
        },
        {
            "sampler" : 0,
            "source" : 6
        }
    ],
    "images" : [
        {
            "bufferView" : 4,
            "mimeType" : "image/jpeg",
            "name" : "\u1103\u1169\u11bc\u110b\u1161550204 001 \u110c\u116e\u11bc\u1100\u1161\u11ab"
        },
        {
            "bufferView" : 8,
            "mimeType" : "image/jpeg",
            "name" : "\u1103\u1169\u11bc\u110b\u1161550121 002 \u110c\u116e\u11bc\u1100\u1161\u11ab"
        },
        {
            "bufferView" : 12,
            "mimeType" : "image/jpeg",
            "name" : "\u1103\u1169\u11bc\u110b\u1161540408 003 \u110c\u116e\u11bc\u1100\u1161\u11ab"
        },
        {
            "bufferView" : 16,
            "mimeType" : "image/jpeg",
            "name" : "\u1103\u1169\u11bc\u110b\u1161530922 005 \u110c\u116e\u11bc\u1100\u1161\u11ab"
        },
        {
            "bufferView" : 20,
            "mimeType" : "image/jpeg",
            "name" : "\u1100\u1167\u11bc\u1112\u1163\u11bc550816 011 \u110c\u116e\u11bc\u1100\u1161\u11ab"
        },
        {
            "bufferView" : 24,
            "mimeType" : "image/jpeg",
            "name" : "19491119 \u1112\u1162\u11ba\u1102\u1175\u11b7\u1100\u116a \u1103\u1161\u11af\u1102\u1175\u11b7, \u1103\u1169\u11bc\u110b\u1161\u110b\u1175\u11af\u1107\u1169 013 \u110c\u116e\u11bc\u1100\u1161\u11ab"
        },
        {
            "bufferView" : 28,
            "mimeType" : "image/jpeg",
            "name" : "19491107 \u1112\u1162\u11ba\u1102\u1175\u11b7\u1100\u116a \u1103\u1161\u11af\u1102\u1175\u11b7 \u1112\u116e\u1111\u1167\u11ab\u1100\u116a\u11bc\u1100\u1169, \u1103\u1169\u11bc\u110b\u1161\u110b\u1175\u11af\u1107\u1169 015 \u110c\u116e\u11bc\u1100\u1161\u11ab"
        }
    ],
    "accessors" : [
        {
            "bufferView" : 0,
            "componentType" : 5126,
            "count" : 4,
            "max" : [
                1,
                2.9802293965985882e-08,
                1
            ],
            "min" : [
                -1,
                -2.980235080940474e-08,
                -1
            ],
            "type" : "VEC3"
        },
        {
            "bufferView" : 1,
            "componentType" : 5126,
            "count" : 4,
            "type" : "VEC2"
        },
        {
            "bufferView" : 2,
            "componentType" : 5126,
            "count" : 4,
            "type" : "VEC3"
        },
        {
            "bufferView" : 3,
            "componentType" : 5123,
            "count" : 6,
            "type" : "SCALAR"
        },
        {
            "bufferView" : 5,
            "componentType" : 5126,
            "count" : 4,
            "max" : [
                1,
                0,
                1
            ],
            "min" : [
                -1,
                0,
                -1
            ],
            "type" : "VEC3"
        },
        {
            "bufferView" : 6,
            "componentType" : 5126,
            "count" : 4,
            "type" : "VEC2"
        },
        {
            "bufferView" : 7,
            "componentType" : 5126,
            "count" : 4,
            "type" : "VEC3"
        },
        {
            "bufferView" : 9,
            "componentType" : 5126,
            "count" : 4,
            "max" : [
                1,
                0,
                1
            ],
            "min" : [
                -1,
                0,
                -1
            ],
            "type" : "VEC3"
        },
        {
            "bufferView" : 10,
            "componentType" : 5126,
            "count" : 4,
            "type" : "VEC2"
        },
        {
            "bufferView" : 11,
            "componentType" : 5126,
            "count" : 4,
            "type" : "VEC3"
        },
        {
            "bufferView" : 13,
            "componentType" : 5126,
            "count" : 4,
            "max" : [
                1,
                0,
                1
            ],
            "min" : [
                -1,
                0,
                -1
            ],
            "type" : "VEC3"
        },
        {
            "bufferView" : 14,
            "componentType" : 5126,
            "count" : 4,
            "type" : "VEC2"
        },
        {
            "bufferView" : 15,
            "componentType" : 5126,
            "count" : 4,
            "type" : "VEC3"
        },
        {
            "bufferView" : 17,
            "componentType" : 5126,
            "count" : 4,
            "max" : [
                1,
                0,
                1
            ],
            "min" : [
                -1,
                0,
                -1
            ],
            "type" : "VEC3"
        },
        {
            "bufferView" : 18,
            "componentType" : 5126,
            "count" : 4,
            "type" : "VEC2"
        },
        {
            "bufferView" : 19,
            "componentType" : 5126,
            "count" : 4,
            "type" : "VEC3"
        },
        {
            "bufferView" : 21,
            "componentType" : 5126,
            "count" : 4,
            "max" : [
                1,
                0,
                1
            ],
            "min" : [
                -1,
                0,
                -1
            ],
            "type" : "VEC3"
        },
        {
            "bufferView" : 22,
            "componentType" : 5126,
            "count" : 4,
            "type" : "VEC2"
        },
        {
            "bufferView" : 23,
            "componentType" : 5126,
            "count" : 4,
            "type" : "VEC3"
        },
        {
            "bufferView" : 25,
            "componentType" : 5126,
            "count" : 4,
            "max" : [
                1,
                0,
                1
            ],
            "min" : [
                -1,
                0,
                -1
            ],
            "type" : "VEC3"
        },
        {
            "bufferView" : 26,
            "componentType" : 5126,
            "count" : 4,
            "type" : "VEC2"
        },
        {
            "bufferView" : 27,
            "componentType" : 5126,
            "count" : 4,
            "type" : "VEC3"
        }
    ],
    "bufferViews" : [
        {
            "buffer" : 0,
            "byteLength" : 48,
            "byteOffset" : 0,
            "target" : 34962
        },
        {
            "buffer" : 0,
            "byteLength" : 32,
            "byteOffset" : 48,
            "target" : 34962
        },
        {
            "buffer" : 0,
            "byteLength" : 48,
            "byteOffset" : 80,
            "target" : 34962
        },
        {
            "buffer" : 0,
            "byteLength" : 12,
            "byteOffset" : 128,
            "target" : 34963
        },
        {
            "buffer" : 0,
            "byteLength" : 115015,
            "byteOffset" : 140
        },
        {
            "buffer" : 0,
            "byteLength" : 48,
            "byteOffset" : 115156,
            "target" : 34962
        },
        {
            "buffer" : 0,
            "byteLength" : 32,
            "byteOffset" : 115204,
            "target" : 34962
        },
        {
            "buffer" : 0,
            "byteLength" : 48,
            "byteOffset" : 115236,
            "target" : 34962
        },
        {
            "buffer" : 0,
            "byteLength" : 149463,
            "byteOffset" : 115284
        },
        {
            "buffer" : 0,
            "byteLength" : 48,
            "byteOffset" : 264748,
            "target" : 34962
        },
        {
            "buffer" : 0,
            "byteLength" : 32,
            "byteOffset" : 264796,
            "target" : 34962
        },
        {
            "buffer" : 0,
            "byteLength" : 48,
            "byteOffset" : 264828,
            "target" : 34962
        },
        {
            "buffer" : 0,
            "byteLength" : 176272,
            "byteOffset" : 264876
        },
        {
            "buffer" : 0,
            "byteLength" : 48,
            "byteOffset" : 441148,
            "target" : 34962
        },
        {
            "buffer" : 0,
            "byteLength" : 32,
            "byteOffset" : 441196,
            "target" : 34962
        },
        {
            "buffer" : 0,
            "byteLength" : 48,
            "byteOffset" : 441228,
            "target" : 34962
        },
        {
            "buffer" : 0,
            "byteLength" : 200963,
            "byteOffset" : 441276
        },
        {
            "buffer" : 0,
            "byteLength" : 48,
            "byteOffset" : 642240,
            "target" : 34962
        },
        {
            "buffer" : 0,
            "byteLength" : 32,
            "byteOffset" : 642288,
            "target" : 34962
        },
        {
            "buffer" : 0,
            "byteLength" : 48,
            "byteOffset" : 642320,
            "target" : 34962
        },
        {
            "buffer" : 0,
            "byteLength" : 93998,
            "byteOffset" : 642368
        },
        {
            "buffer" : 0,
            "byteLength" : 48,
            "byteOffset" : 736368,
            "target" : 34962
        },
        {
            "buffer" : 0,
            "byteLength" : 32,
            "byteOffset" : 736416,
            "target" : 34962
        },
        {
            "buffer" : 0,
            "byteLength" : 48,
            "byteOffset" : 736448,
            "target" : 34962
        },
        {
            "buffer" : 0,
            "byteLength" : 178416,
            "byteOffset" : 736496
        },
        {
            "buffer" : 0,
            "byteLength" : 48,
            "byteOffset" : 914912,
            "target" : 34962
        },
        {
            "buffer" : 0,
            "byteLength" : 32,
            "byteOffset" : 914960,
            "target" : 34962
        },
        {
            "buffer" : 0,
            "byteLength" : 48,
            "byteOffset" : 914992,
            "target" : 34962
        },
        {
            "buffer" : 0,
            "byteLength" : 160169,
            "byteOffset" : 915040
        }
    ],
    "samplers" : [
        {
            "magFilter" : 9729,
            "minFilter" : 9987
        }
    ],
    "buffers" : [
        {
            "byteLength" : 1075212,
            "uri" : "data:application/octet-stream;base64,"
        }
    ]
}
