{
    "asset" : {
        "generator" : "Khronos glTF Blender I/O v3.4.50",
        "version" : "2.0"
    },
    "scene" : 0,
    "scenes" : [
        {
            "name" : "Scene",
            "nodes" : [
                0,
                1,
                2,
                3
            ]
        }
    ],
    "nodes" : [
        {
            "mesh" : 0,
            "name" : "article.001",
            "rotation" : [
                -0.46293696761131287,
                0.6278617978096008,
                -0.21993838250637054,
                0.5857524871826172
            ],
            "scale" : [
                0.41466575860977173,
                0.5000001788139343,
                0.6150190234184265
            ],
            "translation" : [
                0.22272872924804688,
                4.127447128295898,
                -0.2057180404663086
            ]
        },
        {
            "mesh" : 1,
            "name" : "article.002",
            "rotation" : [
                -0.5098568201065063,
                0.3955693244934082,
                -0.27797189354896545,
                0.7115494608879089
            ],
            "scale" : [
                0.5,
                0.5,
                0.7146499752998352
            ],
            "translation" : [
                6.691052436828613,
                7.79910945892334,
                -3.1136860847473145
            ]
        },
        {
            "mesh" : 2,
            "name" : "article.028",
            "rotation" : [
                -0.31758007407188416,
                0.42136889696121216,
                -0.8053953051567078,
                0.2700546085834503
            ],
            "scale" : [
                0.4999999403953552,
                0.5,
                0.6150187253952026
            ],
            "translation" : [
                1.8022379875183105,
                11.227656364440918,
                -0.6068190336227417
            ]
        },
        {
            "mesh" : 3,
            "name" : "article.030",
            "rotation" : [
                -0.6381886601448059,
                0.70107501745224,
                -0.13185721635818481,
                0.28952163457870483
            ],
            "scale" : [
                0.6201211810112,
                0.5000000596046448,
                0.4501667618751526
            ],
            "translation" : [
                3.5202980041503906,
                8.232641220092773,
                -8.997621536254883
            ]
        }
    ],
    "materials" : [
        {
            "doubleSided" : true,
            "name" : "001.001",
            "pbrMetallicRoughness" : {
                "baseColorTexture" : {
                    "index" : 0
                },
                "metallicFactor" : 0,
                "roughnessFactor" : 0.5
            }
        },
        {
            "doubleSided" : true,
            "name" : "001.068",
            "pbrMetallicRoughness" : {
                "baseColorTexture" : {
                    "index" : 1
                },
                "metallicFactor" : 0,
                "roughnessFactor" : 0.5
            }
        },
        {
            "doubleSided" : true,
            "name" : "001.094",
            "pbrMetallicRoughness" : {
                "baseColorTexture" : {
                    "index" : 2
                },
                "metallicFactor" : 0,
                "roughnessFactor" : 0.5
            }
        },
        {
            "doubleSided" : true,
            "name" : "001.096",
            "pbrMetallicRoughness" : {
                "baseColorTexture" : {
                    "index" : 3
                },
                "metallicFactor" : 0,
                "roughnessFactor" : 0.5
            }
        }
    ],
    "meshes" : [
        {
            "name" : "Plane.002",
            "primitives" : [
                {
                    "attributes" : {
                        "POSITION" : 0,
                        "TEXCOORD_0" : 1,
                        "NORMAL" : 2
                    },
                    "indices" : 3,
                    "material" : 0
                }
            ]
        },
        {
            "name" : "Plane.003",
            "primitives" : [
                {
                    "attributes" : {
                        "POSITION" : 4,
                        "TEXCOORD_0" : 5,
                        "NORMAL" : 6
                    },
                    "indices" : 3,
                    "material" : 1
                }
            ]
        },
        {
            "name" : "Plane.095",
            "primitives" : [
                {
                    "attributes" : {
                        "POSITION" : 7,
                        "TEXCOORD_0" : 8,
                        "NORMAL" : 9
                    },
                    "indices" : 3,
                    "material" : 2
                }
            ]
        },
        {
            "name" : "Plane.097",
            "primitives" : [
                {
                    "attributes" : {
                        "POSITION" : 10,
                        "TEXCOORD_0" : 11,
                        "NORMAL" : 12
                    },
                    "indices" : 3,
                    "material" : 3
                }
            ]
        }
    ],
    "textures" : [
        {
            "sampler" : 0,
            "source" : 0
        },
        {
            "sampler" : 0,
            "source" : 1
        },
        {
            "sampler" : 0,
            "source" : 2
        },
        {
            "sampler" : 0,
            "source" : 3
        }
    ],
    "images" : [
        {
            "bufferView" : 4,
            "mimeType" : "image/jpeg",
            "name" : "195601 \u110b\u1175\u11b7\u110e\u116e\u11ab\u110b\u1162\u11bc \u1107\u1167\u11af\u1109\u1166\u1109\u1165\u11af, \u110b\u1161\u1105\u1175\u1105\u1161\u11bc (1)001 \u110c\u116e\u11bc\u1100\u1161\u11ab"
        },
        {
            "bufferView" : 8,
            "mimeType" : "image/jpeg",
            "name" : "195601 \u110b\u1175\u11b7\u110e\u116e\u11ab\u110b\u1162\u11bc \u1107\u1167\u11af\u1109\u1166\u1109\u1165\u11af, \u110b\u1161\u1105\u1175\u1105\u1161\u11bc (3)002 \u110c\u116e\u11bc\u1100\u1161\u11ab"
        },
        {
            "bufferView" : 12,
            "mimeType" : "image/jpeg",
            "name" : "\u110e\u1161\u11bc\u1100\u1173\u11a8\u1109\u1161\u110b\u1167\u11ab\u1100\u116e_12 028 \u110c\u116e\u11bc\u1100\u1161\u11ab"
        },
        {
            "bufferView" : 16,
            "mimeType" : "image/jpeg",
            "name" : "\u1110\u1161\u1100\u1169\u1102\u1161\u11ab\u1102\u1161\u11b7\u110c\u1161\u11bc\u1106\u1175\u110b\u1175\u11ab 030 \u110c\u116e\u11bc\u1100\u1161\u11ab"
        }
    ],
    "accessors" : [
        {
            "bufferView" : 0,
            "componentType" : 5126,
            "count" : 4,
            "max" : [
                1,
                0,
                1
            ],
            "min" : [
                -1,
                0,
                -1
            ],
            "type" : "VEC3"
        },
        {
            "bufferView" : 1,
            "componentType" : 5126,
            "count" : 4,
            "type" : "VEC2"
        },
        {
            "bufferView" : 2,
            "componentType" : 5126,
            "count" : 4,
            "type" : "VEC3"
        },
        {
            "bufferView" : 3,
            "componentType" : 5123,
            "count" : 6,
            "type" : "SCALAR"
        },
        {
            "bufferView" : 5,
            "componentType" : 5126,
            "count" : 4,
            "max" : [
                1,
                0,
                1
            ],
            "min" : [
                -1,
                0,
                -1
            ],
            "type" : "VEC3"
        },
        {
            "bufferView" : 6,
            "componentType" : 5126,
            "count" : 4,
            "type" : "VEC2"
        },
        {
            "bufferView" : 7,
            "componentType" : 5126,
            "count" : 4,
            "type" : "VEC3"
        },
        {
            "bufferView" : 9,
            "componentType" : 5126,
            "count" : 4,
            "max" : [
                1,
                0,
                1
            ],
            "min" : [
                -1,
                0,
                -1
            ],
            "type" : "VEC3"
        },
        {
            "bufferView" : 10,
            "componentType" : 5126,
            "count" : 4,
            "type" : "VEC2"
        },
        {
            "bufferView" : 11,
            "componentType" : 5126,
            "count" : 4,
            "type" : "VEC3"
        },
        {
            "bufferView" : 13,
            "componentType" : 5126,
            "count" : 4,
            "max" : [
                1,
                0,
                1
            ],
            "min" : [
                -1,
                0,
                -1
            ],
            "type" : "VEC3"
        },
        {
            "bufferView" : 14,
            "componentType" : 5126,
            "count" : 4,
            "type" : "VEC2"
        },
        {
            "bufferView" : 15,
            "componentType" : 5126,
            "count" : 4,
            "type" : "VEC3"
        }
    ],
    "bufferViews" : [
        {
            "buffer" : 0,
            "byteLength" : 48,
            "byteOffset" : 0,
            "target" : 34962
        },
        {
            "buffer" : 0,
            "byteLength" : 32,
            "byteOffset" : 48,
            "target" : 34962
        },
        {
            "buffer" : 0,
            "byteLength" : 48,
            "byteOffset" : 80,
            "target" : 34962
        },
        {
            "buffer" : 0,
            "byteLength" : 12,
            "byteOffset" : 128,
            "target" : 34963
        },
        {
            "buffer" : 0,
            "byteLength" : 169570,
            "byteOffset" : 140
        },
        {
            "buffer" : 0,
            "byteLength" : 48,
            "byteOffset" : 169712,
            "target" : 34962
        },
        {
            "buffer" : 0,
            "byteLength" : 32,
            "byteOffset" : 169760,
            "target" : 34962
        },
        {
            "buffer" : 0,
            "byteLength" : 48,
            "byteOffset" : 169792,
            "target" : 34962
        },
        {
            "buffer" : 0,
            "byteLength" : 147748,
            "byteOffset" : 169840
        },
        {
            "buffer" : 0,
            "byteLength" : 48,
            "byteOffset" : 317588,
            "target" : 34962
        },
        {
            "buffer" : 0,
            "byteLength" : 32,
            "byteOffset" : 317636,
            "target" : 34962
        },
        {
            "buffer" : 0,
            "byteLength" : 48,
            "byteOffset" : 317668,
            "target" : 34962
        },
        {
            "buffer" : 0,
            "byteLength" : 125258,
            "byteOffset" : 317716
        },
        {
            "buffer" : 0,
            "byteLength" : 48,
            "byteOffset" : 442976,
            "target" : 34962
        },
        {
            "buffer" : 0,
            "byteLength" : 32,
            "byteOffset" : 443024,
            "target" : 34962
        },
        {
            "buffer" : 0,
            "byteLength" : 48,
            "byteOffset" : 443056,
            "target" : 34962
        },
        {
            "buffer" : 0,
            "byteLength" : 146845,
            "byteOffset" : 443104
        }
    ],
    "samplers" : [
        {
            "magFilter" : 9729,
            "minFilter" : 9987
        }
    ],
    "buffers" : [
        {
            "byteLength" : 589952,
            "uri" : "data:application/octet-stream;base64,"
        }
    ]
}
